<?xml version="1.0" standalone="no"?>
<!DOCTYPE svg PUBLIC "-//W3C//DTD SVG 20010904//EN"
 "http://www.w3.org/TR/2001/REC-SVG-20010904/DTD/svg10.dtd">
<svg version="1.0" xmlns="http://www.w3.org/2000/svg"
 width="959.000000pt" height="959.000000pt" viewBox="0 0 959.000000 959.000000"
 preserveAspectRatio="xMidYMid meet">
<metadata>
Created by potrace 1.11, written by Peter Selinger 2001-2013
</metadata>
<g transform="translate(0.000000,959.000000) scale(0.100000,-0.100000)"
fill="#000000" stroke="none">
<path d="M0 8890 l0 -240 33 -1 c34 -2 45 -3 117 -12 25 -4 68 -9 95 -12 28
-4 61 -8 75 -10 14 -3 59 -9 100 -15 167 -24 398 -97 530 -167 165 -89 250
-195 302 -378 l23 -80 0 -3225 c0 -3126 -1 -3227 -19 -3295 -52 -195 -167
-321 -367 -402 -34 -14 -73 -27 -88 -29 -14 -2 -46 -8 -71 -14 -44 -9 -125
-21 -165 -25 -11 -1 -58 -5 -105 -9 -47 -5 -93 -10 -102 -11 -15 -3 -149 -13
-278 -20 -25 -2 -51 -3 -57 -4 -10 -1 -13 -56 -13 -240 l0 -240 2373 3 c1304
2 2406 6 2447 10 41 3 102 8 135 11 93 7 175 15 230 21 28 3 70 7 95 9 25 3
79 10 120 16 41 6 91 13 110 15 19 3 46 7 60 10 107 18 218 37 230 39 70 14
273 58 305 66 22 6 49 13 60 15 95 17 445 124 630 192 104 38 140 53 295 117
65 27 385 185 450 222 266 153 514 323 694 477 115 98 335 319 416 417 41 50
82 99 91 108 20 21 132 176 196 271 113 169 245 407 313 565 12 28 28 64 36
82 39 87 144 402 158 478 2 11 7 27 10 35 3 8 7 26 10 40 2 14 11 54 19 90 9
36 18 85 22 110 3 25 8 52 10 60 2 8 6 33 10 55 3 22 8 54 11 70 2 17 7 50 9
75 2 25 7 63 9 85 27 227 28 813 1 1050 -1 17 -6 62 -10 100 -4 39 -9 77 -10
86 -2 9 -6 40 -10 69 -4 29 -9 62 -11 74 -2 12 -13 71 -24 133 -39 213 -109
461 -187 661 -24 65 -50 131 -56 147 -27 68 -160 321 -227 431 -95 155 -259
389 -315 450 -5 7 -26 31 -45 55 -122 150 -344 371 -500 499 -30 25 -57 47
-60 50 -50 54 -589 407 -627 411 -5 1 -19 9 -33 19 -49 34 -369 188 -516 247
-151 62 -332 125 -459 162 -110 31 -189 53 -205 56 -8 2 -67 14 -130 28 -131
29 -162 35 -280 57 -30 6 -66 12 -80 15 -14 3 -38 7 -55 9 -16 3 -59 9 -95 15
-36 6 -87 13 -115 17 -27 3 -57 7 -65 9 -8 1 -44 6 -80 10 -36 3 -76 8 -90 10
-14 2 -61 7 -105 10 -44 4 -96 9 -115 12 -19 4 -1166 8 -2547 10 l-2513 4 0
-241z m4545 -324 c61 -3 119 -8 131 -10 12 -2 45 -7 74 -11 29 -4 62 -9 74
-11 12 -2 37 -7 56 -10 311 -55 648 -194 905 -372 326 -226 591 -517 791 -868
43 -77 149 -286 161 -319 6 -16 29 -73 51 -125 92 -222 206 -615 247 -855 35
-207 45 -266 50 -315 4 -37 16 -131 20 -160 8 -54 21 -228 31 -435 12 -246 7
-685 -11 -945 -11 -166 -16 -231 -19 -261 -3 -19 -7 -61 -10 -94 -4 -33 -8
-76 -11 -95 -3 -19 -7 -55 -10 -80 -3 -25 -10 -70 -15 -100 -5 -30 -12 -75
-15 -100 -3 -25 -7 -52 -10 -60 -2 -8 -6 -26 -9 -40 -2 -14 -7 -43 -11 -65 -4
-22 -9 -47 -10 -55 -9 -46 -49 -215 -67 -275 -21 -75 -86 -280 -95 -305 -4 -8
-7 -17 -8 -20 -2 -6 -8 -22 -52 -130 -69 -170 -185 -387 -279 -522 -94 -136
-249 -306 -374 -412 -52 -44 -209 -155 -260 -183 -246 -138 -481 -223 -725
-263 -33 -6 -71 -12 -85 -14 -125 -22 -248 -30 -460 -31 -268 0 -398 16 -548
68 -66 24 -193 81 -217 99 -190 139 -275 245 -329 409 -56 168 -54 -12 -54
3602 0 1835 4 3339 8 3342 9 5 66 8 485 20 127 4 231 8 232 9 4 3 271 -2 368
-8z"/>
</g>
</svg>
